<svg width="120" height="120" viewBox="0 0 120 120" fill="none" xmlns="http://www.w3.org/2000/svg">
<circle cx="60" cy="60" r="58" stroke="#E27F7F" stroke-width="4"/>
<path d="M55.4358 54.9645C54.1163 53.8932 52.8164 52.8542 51.5368 51.8313C48.3089 49.2511 45.2103 46.7742 42.2525 44.1452C41.1328 43.1431 39.9813 40.9138 40.425 39.8605C40.8898 38.7152 43.256 37.6108 44.7032 37.7232C46.3934 37.8562 48.2526 39.022 49.5624 40.2389C52.0455 42.525 54.3921 44.9485 56.7357 47.3689C57.6523 48.3156 58.5685 49.2618 59.4922 50.1991C60.9865 48.9592 62.45 47.726 63.8987 46.5054C67.1814 43.7395 70.3874 41.0382 73.7002 38.4697C78.5171 34.7372 79.1615 34.9111 84.0947 40.1059C83.3043 40.7673 82.5176 41.4269 81.7332 42.0847C80.662 42.9829 79.5948 43.8777 78.5277 44.769C74.0699 48.4811 69.6015 52.1932 65.2176 55.8337C66.4261 57.6563 67.5868 59.4325 68.7226 61.1708C71.3595 65.2063 73.8627 69.0372 76.5206 72.7681C78.1791 75.0997 79.4256 77.1858 76.4995 79.139C73.341 81.2455 71.3973 78.6993 69.9606 76.6847C67.9372 73.8694 66.1079 70.9238 64.278 67.9772C63.4426 66.632 62.607 65.2866 61.7528 63.9532C61.4987 63.5543 61.191 63.1899 60.789 62.714C60.5727 62.458 60.3292 62.1696 60.052 61.8262C58.7846 63.2681 57.5313 64.69 56.2896 66.0987C53.1017 69.7153 49.9899 73.2454 46.911 76.8074C46.6496 77.1111 46.5201 77.5225 46.3907 77.9338C46.2587 78.3534 46.1267 78.7729 45.8547 79.0776C45.5736 79.3907 45.2944 79.7239 45.0125 80.0603C43.9596 81.3169 42.869 82.6184 41.5025 83.0862C40.4144 83.4646 37.7524 82.0739 37.2453 80.8979C36.601 79.3946 36.7383 76.8279 37.7101 75.5496C40.3576 72.0924 43.2618 68.8174 46.1628 65.5461C47.2089 64.3664 48.2547 63.1872 49.2878 62C50.5615 60.5304 51.8457 59.0708 53.3658 57.343C54.0141 56.6061 54.7053 55.8205 55.4569 54.9645H55.4358Z" fill="#FF4D4D"/>
<path d="M55.4358 54.9645C54.1163 53.8932 52.8164 52.8542 51.5368 51.8313C48.3089 49.2511 45.2103 46.7742 42.2525 44.1452C41.1328 43.1431 39.9813 40.9138 40.425 39.8605C40.8898 38.7152 43.256 37.6108 44.7032 37.7232C46.3934 37.8562 48.2526 39.022 49.5624 40.2389C52.0455 42.525 54.3921 44.9485 56.7357 47.3689C57.6523 48.3156 58.5685 49.2618 59.4922 50.1991C60.9865 48.9592 62.45 47.726 63.8987 46.5054C67.1814 43.7395 70.3874 41.0382 73.7002 38.4697C78.5171 34.7372 79.1615 34.9111 84.0947 40.1059C83.3043 40.7673 82.5176 41.4269 81.7332 42.0847C80.662 42.9829 79.5948 43.8777 78.5277 44.769C74.0699 48.4811 69.6015 52.1932 65.2176 55.8337C66.4261 57.6563 67.5868 59.4325 68.7226 61.1708C71.3595 65.2063 73.8627 69.0372 76.5206 72.7681C78.1791 75.0997 79.4256 77.1858 76.4995 79.139C73.341 81.2455 71.3973 78.6993 69.9606 76.6847C67.9372 73.8694 66.1079 70.9238 64.278 67.9772C63.4426 66.632 62.607 65.2866 61.7528 63.9532C61.4987 63.5543 61.191 63.1899 60.789 62.714C60.5727 62.458 60.3292 62.1696 60.052 61.8262C58.7846 63.2681 57.5313 64.69 56.2896 66.0987C53.1017 69.7153 49.9899 73.2454 46.911 76.8074C46.6496 77.1111 46.5201 77.5225 46.3907 77.9338C46.2587 78.3534 46.1267 78.7729 45.8547 79.0776C45.5736 79.3907 45.2944 79.7239 45.0125 80.0603C43.9596 81.3169 42.869 82.6184 41.5025 83.0862C40.4144 83.4646 37.7524 82.0739 37.2453 80.8979C36.601 79.3946 36.7383 76.8279 37.7101 75.5496C40.3576 72.0924 43.2618 68.8174 46.1628 65.5461C47.2089 64.3664 48.2547 63.1872 49.2878 62C50.5615 60.5304 51.8457 59.0708 53.3658 57.343C54.0141 56.6061 54.7053 55.8205 55.4569 54.9645H55.4358Z" stroke="#FF4D4D"/>
</svg>
