<svg width="100" height="100" viewBox="0 0 100 100" fill="none" xmlns="http://www.w3.org/2000/svg">
<path d="M56.5076 26.7835H8.1727C4.50446 26.7835 1.53076 29.7572 1.53076 33.4254C1.53076 37.0936 4.50446 40.0673 8.1727 40.0673H13.0062C19.3439 40.0673 24.4816 45.2051 24.4816 51.5428V76.1705C24.4816 79.8388 27.4553 82.8125 31.1236 82.8125C34.7918 82.8125 37.7655 79.8388 37.7655 76.1706V72.5537C37.7655 66.8879 42.3585 62.2948 48.0243 62.2948H73.803C81.8697 61.5934 98.0954 54.969 98.4636 34.083C98.8319 13.1971 80.3791 5.78353 71.1067 4.6875H37.8641C34.1051 4.6875 31.0578 7.7348 31.0578 11.4938C31.0578 15.2529 34.1051 18.3002 37.8641 18.3002H68.3231C70.1763 18.3002 72.0462 18.3777 73.8041 18.9645C78.6767 20.5912 85.1801 24.9858 85.3113 34.083C85.4691 45.0258 75.9073 48.6821 71.1067 49.1425H42.3031C39.797 49.1425 37.7655 47.1109 37.7655 44.6049C37.7655 42.0989 39.797 40.0673 42.3031 40.0673H56.5076C60.1758 40.0673 63.1495 37.0936 63.1495 33.4254C63.1495 29.7572 60.1758 26.7835 56.5076 26.7835Z" fill="white" stroke="#020202"/>
<path d="M50.1315 86.5609H54.406C55.4411 86.5609 56.2802 85.7218 56.2802 84.6867C56.2802 83.6516 55.4411 82.8125 54.406 82.8125H50C46.5315 82.8125 43.7197 85.6571 43.7197 89.1256C43.7197 92.5941 46.5315 95.4388 50 95.4388H54.3074C55.3969 95.4388 56.2802 94.5555 56.2802 93.4659C56.2802 92.3763 55.397 91.4931 54.3074 91.4931H50.1315C48.7695 91.4931 47.6654 90.389 47.6654 89.027C47.6654 87.665 48.7695 86.5609 50.1315 86.5609Z" fill="#03FE67" stroke="#03FE67"/>
</svg>
