<svg width="120" height="120" viewBox="0 0 120 120" fill="none" xmlns="http://www.w3.org/2000/svg">
<circle cx="60" cy="60" r="58" stroke="#7FE2A1" stroke-width="4"/>
<path d="M40.4939 56.6617C39.0289 55.0082 36.5009 54.8554 34.8474 56.3205C33.1939 57.7855 33.0411 60.3135 34.5061 61.967L40.4939 56.6617ZM53.1222 73.4182L49.5999 71.5225L49.4872 71.7319L49.4001 71.9531L53.1222 73.4182ZM61.3213 61.5582L64.2042 64.331L61.3213 61.5582ZM69.4192 53.7977L72.0112 56.8443L69.4192 53.7977ZM83.436 48.6415L87.0774 46.9863L83.767 39.7033L80.1255 41.3585L83.436 48.6415ZM50.5053 75.9323L47.5328 78.6089L50.5053 75.9323ZM52.1097 75.6734L55.7466 77.3388L52.1097 75.6734ZM34.5061 61.967C36.4748 64.189 38.5043 66.9522 40.709 69.9434C42.8566 72.857 45.1668 75.9814 47.5328 78.6089L53.4778 73.2557C51.4199 70.9704 49.3411 68.1713 47.1487 65.1968C45.0136 62.3 42.7523 59.2106 40.4939 56.6617L34.5061 61.967ZM55.7466 77.3388C56.1276 76.5068 56.6906 75.2735 56.8442 74.8833L49.4001 71.9531C49.4082 71.9327 49.3896 71.9791 49.3188 72.1397C49.2584 72.277 49.1793 72.4538 49.0873 72.6579C48.9038 73.065 48.68 73.5559 48.4729 74.0081L55.7466 77.3388ZM56.6445 75.3138C58.9514 71.0273 61.312 67.338 64.2042 64.331L58.4384 58.7853C54.8131 62.5544 52.0486 66.9727 49.5999 71.5225L56.6445 75.3138ZM64.2042 64.331C66.7466 61.6878 69.33 59.1253 72.0112 56.8443L66.8272 50.7511C63.8464 53.2871 61.0493 56.0708 58.4384 58.7853L64.2042 64.331ZM72.0112 56.8443C74.8134 54.4602 78.5794 50.849 83.436 48.6415L80.1255 41.3585C73.9821 44.151 69.1723 48.7559 66.8272 50.7511L72.0112 56.8443ZM47.5328 78.6089C49.9979 81.3465 54.2993 80.4995 55.7466 77.3388L48.4729 74.0081C49.3349 72.1256 51.9534 71.5628 53.4778 73.2557L47.5328 78.6089Z" fill="#03FE67"/>
</svg>
