<svg width="24" height="24" viewBox="0 0 24 24" fill="none" xmlns="http://www.w3.org/2000/svg">
<path d="M12 21C16.9706 21 21 16.9706 21 12C21 7.02944 16.9706 3 12 3C7.02944 3 3 7.02944 3 12C3 16.9706 7.02944 21 12 21Z" stroke="#FFCC00" stroke-width="1.5" stroke-linecap="round" stroke-linejoin="round"/>
<path d="M9.5769 9.57639C9.5769 9.09715 9.71915 8.62868 9.98564 8.2302C10.2521 7.83173 10.6309 7.52116 11.0741 7.33776C11.5172 7.15437 12.0049 7.10639 12.4753 7.19988C12.9458 7.29337 13.3779 7.52414 13.7171 7.86303C14.0563 8.2019 14.2873 8.63365 14.3809 9.10367C14.4744 9.5737 14.4264 10.0609 14.2429 10.5037C14.0593 10.9464 13.7484 11.3248 13.3496 11.5911C12.9508 11.8573 12.4819 11.9995 12.0022 11.9995V13.6148" stroke="#FFCC00" stroke-width="1.5" stroke-linecap="round" stroke-linejoin="round"/>
<path d="M12 16.7887C11.8088 16.7887 11.6538 16.6338 11.6538 16.4426C11.6538 16.2514 11.8088 16.0964 12 16.0964" stroke="#FFCC00" stroke-width="1.5" stroke-linecap="round" stroke-linejoin="round"/>
<path d="M12 16.7887C12.1912 16.7887 12.3462 16.6338 12.3462 16.4426C12.3462 16.2514 12.1912 16.0964 12 16.0964" stroke="#FFCC00" stroke-width="1.5" stroke-linecap="round" stroke-linejoin="round"/>
</svg>
