<svg width="48" height="48" viewBox="0 0 48 48" fill="none" xmlns="http://www.w3.org/2000/svg">
<rect width="48" height="48" rx="24" fill="#FFCC00"/>
<path d="M24.0001 24.2587C25.738 24.2587 27.1469 22.8499 27.1469 21.1119C27.1469 19.374 25.738 17.9651 24.0001 17.9651C22.2622 17.9651 20.8533 19.374 20.8533 21.1119C20.8533 22.8499 22.2622 24.2587 24.0001 24.2587Z" stroke="#161616" stroke-width="1.5" stroke-linecap="round" stroke-linejoin="round"/>
<path d="M18.6251 30.1678C19.1868 29.2458 19.9762 28.4838 20.9175 27.9551C21.8588 27.4263 22.9202 27.1486 23.9999 27.1486C25.0795 27.1486 26.141 27.4263 27.0822 27.9551C28.0235 28.4838 28.8129 29.2458 29.3747 30.1678" stroke="#161616" stroke-width="1.5" stroke-linecap="round" stroke-linejoin="round"/>
<path d="M23.9999 32.9998C28.9705 32.9998 32.9998 28.9705 32.9998 23.9999C32.9998 19.0294 28.9705 15 23.9999 15C19.0294 15 15 19.0294 15 23.9999C15 28.9705 19.0294 32.9998 23.9999 32.9998Z" stroke="#161616" stroke-width="1.5" stroke-linecap="round" stroke-linejoin="round"/>
</svg>
