<svg width="32" height="32" viewBox="0 0 32 32" fill="none" xmlns="http://www.w3.org/2000/svg">
<rect width="32" height="32" rx="16" fill="#FFCC00"/>
<path d="M16.0001 16.2587C17.738 16.2587 19.1469 14.8499 19.1469 13.1119C19.1469 11.374 17.738 9.96509 16.0001 9.96509C14.2622 9.96509 12.8533 11.374 12.8533 13.1119C12.8533 14.8499 14.2622 16.2587 16.0001 16.2587Z" stroke="#161616" stroke-width="1.5" stroke-linecap="round" stroke-linejoin="round"/>
<path d="M10.6251 22.1678C11.1868 21.2458 11.9763 20.4838 12.9175 19.9551C13.8588 19.4263 14.9203 19.1486 15.9999 19.1486C17.0795 19.1486 18.141 19.4263 19.0823 19.9551C20.0236 20.4838 20.8129 21.2458 21.3747 22.1678" stroke="#161616" stroke-width="1.5" stroke-linecap="round" stroke-linejoin="round"/>
<path d="M15.9999 24.9998C20.9705 24.9998 24.9998 20.9705 24.9998 15.9999C24.9998 11.0294 20.9705 7 15.9999 7C11.0294 7 7 11.0294 7 15.9999C7 20.9705 11.0294 24.9998 15.9999 24.9998Z" stroke="#161616" stroke-width="1.5" stroke-linecap="round" stroke-linejoin="round"/>
</svg>
